<?xml version="1.0" encoding="utf-8"?>
<!-- Generator: Adobe Illustrator 25.4.1, SVG Export Plug-In . SVG Version: 6.00 Build 0)  -->
<svg version="1.1" id="Layer_1" xmlns="http://www.w3.org/2000/svg" xmlns:xlink="http://www.w3.org/1999/xlink" x="0px" y="0px"
	 viewBox="0 0 576 576" style="enable-background:new 0 0 576 576;" xml:space="preserve">
<style type="text/css">
	.st0{fill:#FFFFFF;}
</style>
<path class="st0" d="M360.2,525.6v-45.8c43.4-19.5,72.3-64.3,72.3-113.4v-8.2c22.4-13.8,36.1-38.3,36.1-65.4V27.9
	c0-15.3-12.2-27.9-27.1-27.9H134.4c-14.9,0-27.1,12.6-27.1,27.9v265c-0.2,26.6,13.5,51.4,36.1,65.4v8.2c0,49.1,28.8,93.9,72.3,113.4
	v45.8l-11.7,12c-4.1,4.3-6.3,9.9-6.4,15.8c0,12.3,9.8,22.4,21.8,22.4h137c12,0,21.8-10.1,21.8-22.4c0-5.9-2.3-11.6-6.4-15.8
	L360.2,525.6z M342.2,520.2H233.9V483h108.4V520.2L342.2,520.2z M161.6,366.5V353h252.9v13.5c0,1.6-0.1,3.4-0.2,5H161.8
	C161.6,369.9,161.6,368.1,161.6,366.5z M288,74.3c59.8,0,108.4,50,108.4,111.5v118.3c-5.7-6-12.5-10.8-20.1-14.1
	c-7.5-18-25.1-29.8-44.6-29.9h-11.2c-10.5-17.9-33.6-24-51.6-13.4c-5.6,3.3-10.2,7.9-13.4,13.4h-11.2c-19.5,0-36.8,11.8-44.6,29.9
	c-7.6,3.3-14.4,8-20.1,14.1V185.8C179.6,124.3,228.2,74.3,288,74.3z M393.6,334.4H182.4c4-13.3,14.1-23.8,27.2-28.4l4.3-1.4l1.4-4.4
	c4-12.7,15.7-21.4,29-21.5h22.2l3.5-7.1c4.7-10,16.6-14.3,26.6-9.6c4.2,2,7.6,5.4,9.6,9.6l3.4,7.1h22.2c13.3,0.1,25,8.8,29,21.5
	l1.4,4.4l4.3,1.4C379.5,310.6,389.6,321.2,393.6,334.4L393.6,334.4z M427.1,339.8c-3.3-3.4-7.9-5.4-12.7-5.5V185.8
	c0-26.5-7.9-52.4-22.8-74.3h59v181.4C450.7,311.4,442,328.7,427.1,339.8z M134.4,18.6h307.1c5,0.1,9.1,4.2,9,9.3v65h-74.3
	c-47.7-48.8-126-49.6-174.8-1.8c-0.6,0.6-1.2,1.2-1.8,1.8h-74.3v-65C125.3,22.8,129.4,18.7,134.4,18.6z M125.4,292.9V111.5h59
	c-14.9,21.9-22.8,47.8-22.8,74.3v148.6c-4.8,0-9.4,2-12.7,5.5C134.1,328.9,125.3,311.4,125.4,292.9z M164.2,390.2h247.6
	c-7.5,33.2-30.6,61.5-62.3,74.4H226.4C194.8,451.7,171.8,423.4,164.2,390.2z M356.5,557.3h-137c-2.1,0-3.7-1.7-3.7-3.8c0,0,0,0,0,0
	c0-1,0.4-2,1.1-2.7l11.7-12h119l11.7,12c1.5,1.5,1.5,3.9,0,5.4C358.6,556.9,357.6,557.3,356.5,557.3L356.5,557.3z"/>
<path class="st0" d="M239.1,297.2l-2.6,2.7l12.8,13.1l2.6-2.7c5-4.9,13.1-4.9,18.1,0l2.6,2.7l12.8-13.2l-2.6-2.8
	C271.1,285.2,250.8,285.2,239.1,297.2L239.1,297.2z"/>
<path class="st0" d="M302.4,306.6l-2.6,2.7l12.8,13.2l2.6-2.7c5-4.9,13.1-4.9,18.1,0l2.6,2.7l12.8-13.2l-2.6-2.7
	C334.2,294.6,313.9,294.6,302.4,306.6L302.4,306.6z"/>
<path class="st0" d="M306,167.2c19.9,0,36.1-16.7,36.1-37.1S326,93,306,93s-36,16.6-36,37.1S286.1,167.2,306,167.2z M306,111.5
	c10.3-0.3,18.9,7.8,19.2,18c0.3,10.3-7.8,18.9-18,19.2c-10.3,0.3-18.9-7.8-19.2-18c0-0.2,0-0.4,0-0.6
	C288,119.8,296.1,111.5,306,111.5z"/>
<path class="st0" d="M233.9,232.2c19.9,0,36.1-16.7,36.1-37.1S253.8,158,233.9,158s-36.1,16.7-36.1,37.1S213.9,232.2,233.9,232.2z
	 M233.9,176.5c10.3-0.3,18.8,7.8,19.1,18.1c0.3,10.3-7.8,18.8-18.1,19.1c-10.3,0.3-18.8-7.8-19.1-18.1c0-0.2,0-0.3,0-0.5
	C215.6,185,223.7,176.6,233.9,176.5C233.8,176.5,233.8,176.5,233.9,176.5z"/>
<path class="st0" d="M306,213.7c0,15.3,12.2,27.9,27.1,27.9s27.1-12.6,27.1-27.9s-12.2-27.9-27.1-27.9S306,198.3,306,213.7z
	 M342.2,213.7c-0.1,5-4.3,8.9-9.3,8.7c-5-0.1-8.9-4.3-8.7-9.3c0.1-4.9,4.1-8.7,9-8.7C338.3,204.5,342.3,208.6,342.2,213.7
	C342.3,213.6,342.3,213.7,342.2,213.7z"/>
</svg>
