<?xml version="1.0" encoding="utf-8"?>
<!-- Generator: Adobe Illustrator 25.4.1, SVG Export Plug-In . SVG Version: 6.00 Build 0)  -->
<svg version="1.1" id="Layer_1" xmlns="http://www.w3.org/2000/svg" xmlns:xlink="http://www.w3.org/1999/xlink" x="0px" y="0px"
	 viewBox="0 0 576 576" style="enable-background:new 0 0 576 576;" xml:space="preserve">
<style type="text/css">
	.st0{fill:#FFFFFF;}
</style>
<path class="st0" d="M108,439.2H72c-5,0-9,4-9,9s4,9,9,9h36c5,0,9-4,9-9S113,439.2,108,439.2z"/>
<path class="st0" d="M108,529.2H72c-5,0-9,4-9,9s4,9,9,9h36c5,0,9-4,9-9S113,529.2,108,529.2z"/>
<path class="st0" d="M315,457.2c-5,0-9,4-9,9v18c0,5,4,9,9,9s9-4,9-9l0,0v-18C324,461.2,320,457.2,315,457.2z"/>
<path class="st0" d="M261,493.2c5,0,9-4,9-9l0,0v-18c0-5-4-9-9-9s-9,4-9,9v18C252,489.2,256,493.2,261,493.2L261,493.2z"/>
<path class="st0" d="M432,547.2h108c5,0,9-4,9-9v-90c0-5-4-9-9-9H432c-5,0-9,4-9,9v90C423,543.2,427,547.2,432,547.2z M441,457.2h90
	v72h-90V457.2z"/>
<path class="st0" d="M567,376.2H9c-5,0-9,4-9,9v180c0,5,4,9,9,9h558c5,0,9-4,9-9v-180C576,380.2,572,376.2,567,376.2z M558,412.2
	H414v-18h144V412.2z M279,529.2h-72v-108h72V529.2z M297,421.2h72v108h-72V421.2z M18,394.2h144v72H18V394.2z M18,484.2h144v72H18
	V484.2z M180,475.2v-81h99v9h-81c-5,0-9,4-9,9v126c0,5,4,9,9,9h81v9h-99V475.2z M297,547.2h81c5,0,9-4,9-9v-126c0-5-4-9-9-9h-81v-9
	h99v162h-99V547.2z M558,556.2H414v-126h144V556.2z"/>
<path class="st0" d="M90,25.2H36c-5,0-9,4-9,9c0,0,0,0,0,0v108c0,5,4,9,9,9h54c5,0,9-4,9-9v-108C99,29.2,95,25.2,90,25.2L90,25.2z
	 M81,133.2H45v-90h36V133.2z"/>
<path class="st0" d="M567-1.8H9c-5,0-9,4-9,9v162c0,5,4,9,9,9h108c5,0,9-4,9-9v-63h324v63c0,5,4,9,9,9h108c5,0,9-4,9-9V7.2
	C576,2.2,572-1.8,567-1.8z M108,160.2H18v-144h90V160.2z M126,16.2h72v72h-72V16.2z M216,16.2h63v72h-63V16.2z M297,16.2h63v72h-63
	V16.2z M378,88.2v-72h72v72H378z M558,160.2h-90v-144h90V160.2z"/>
<path class="st0" d="M486,151.2h54c5,0,9-4,9-9v-108c0-5-4-9-9-9h-54c-5,0-9,4-9,9v108C477,147.2,481,151.2,486,151.2z M495,43.2h36
	v90h-36V43.2z"/>
<path class="st0" d="M189,232.2c0,5,4,9,9,9s9-4,9-9c0-14.9,12.1-27,27-27l0,0c5,0,9-4,9-9s-4-9-9-9c-14.9,0-27-12.1-27-27
	c0-5-4-9-9-9s-9,4-9,9c0,14.9-12.1,27-27,27c-5,0-9,4-9,9s4,9,9,9C176.9,205.2,189,217.3,189,232.2L189,232.2z M198,187.2
	c2.6,3.4,5.6,6.4,9,9c-3.4,2.6-6.4,5.6-9,9c-2.6-3.4-5.6-6.4-9-9C192.4,193.6,195.4,190.6,198,187.2L198,187.2z"/>
<path class="st0" d="M486,286.2c0,5,4,9,9,9s9-4,9-9c0-14.9,12.1-27,27-27c5,0,9-4,9-9s-4-9-9-9c-14.9,0-27-12.1-27-27c0-5-4-9-9-9
	s-9,4-9,9c0,14.9-12.1,27-27,27c-5,0-9,4-9,9s4,9,9,9C473.9,259.2,486,271.3,486,286.2z M495,241.2c2.6,3.4,5.6,6.4,9,9
	c-3.4,2.6-6.4,5.6-9,9c-2.6-3.4-5.6-6.4-9-9C489.4,247.6,492.4,244.6,495,241.2L495,241.2z"/>
<path class="st0" d="M81,250.2c-5,0-9,4-9,9v9h-9c-5,0-9,4-9,9s4,9,9,9h9v9c0,5,4,9,9,9s9-4,9-9v-9h9c5,0,9-4,9-9s-4-9-9-9h-9v-9
	C90,254.2,86,250.2,81,250.2z"/>
<path class="st0" d="M360,277.2c-5,0-9,4-9,9v9h-9c-5,0-9,4-9,9s4,9,9,9h9v9c0,5,4,9,9,9s9-4,9-9v-9h9c5,0,9-4,9-9s-4-9-9-9h-9v-9
	C369,281.2,365,277.2,360,277.2z"/>
</svg>
