<?xml version="1.0" encoding="utf-8"?>
<!-- Generator: Adobe Illustrator 25.4.1, SVG Export Plug-In . SVG Version: 6.00 Build 0)  -->
<svg version="1.1" id="Layer_1" xmlns="http://www.w3.org/2000/svg" xmlns:xlink="http://www.w3.org/1999/xlink" x="0px" y="0px"
	 viewBox="0 0 576 576" style="enable-background:new 0 0 576 576;" xml:space="preserve">
<style type="text/css">
	.st0{fill:#FFFFFF;}
</style>
<path class="st0" d="M10.3,257.4h21.8l40,289.2c0.8,4.9,5.2,8.5,10.2,8.4h242.1c12,12.4,28.6,19.3,45.9,19.2h16.1
	c11.2,0,22.3-2.5,32.5-7.2c14.8-6.8,31.9-6.8,46.7,0c10.2,4.7,21.3,7.2,32.5,7.2h16.1c16.1,0.1,31.7-6,43.6-16.9
	c11.4-10.5,18-25.2,18.1-40.7V459c-0.1-15.5-6.7-30.2-18.1-40.7c-11.9-10.9-27.5-17-43.6-16.9h-16.1c-11.2,0-22.3,2.4-32.5,7.2
	c-14.8,6.8-31.9,6.8-46.7,0c-5.9-2.7-12.1-4.6-18.5-5.8l20-145.4h21.8c2.7,0,5.3-1,7.3-2.8c1.9-1.7,3-4.2,3-6.8v-38.4
	c0-2.6-1.1-5-3-6.8c-2-1.8-4.6-2.8-7.3-2.8h-41.1V171c0-2.6-1.1-5-3-6.8L349.7,119V89.2l15.6-11.6l26.6,49.7l18.4-8.6l-28.6-53.4
	l12.7-9.5H432c2.7,0,5.3-1,7.3-2.8c1.9-1.7,3-4.2,3-6.8V7.8c0-2.6-1.1-5-3-6.8c-2-1.8-4.6-2.8-7.3-2.8H329.1
	c-24.5,0-48.1,9.1-65.4,25.3s-27.1,38.2-27.1,61.1c0,2.6,1.1,5,3,6.8c2,1.8,4.6,2.8,7.3,2.8h20.6V119l-27.8,26l0,0
	c-1.9,1.7-3,4.2-3,6.8v48H216V123c0-1.2-0.3-2.4-0.8-3.5c-0.2-0.4-0.4-0.7-0.6-1.1c-0.3-0.5-0.5-1-0.9-1.4l-38.9-45.4V7.8
	c0-2.6-1.1-5-3-6.8c-2-1.8-4.6-2.8-7.3-2.8h-61.7c-5.7,0-10.3,4.3-10.3,9.6v63.8L53.7,117c-0.3,0.5-0.6,0.9-0.9,1.4
	c-0.2,0.3-0.4,0.7-0.6,1.1c-0.5,1.1-0.7,2.3-0.8,3.5v76.8H10.3c-5.7,0-10.3,4.3-10.3,9.6v38.4c0,2.6,1.1,5,3,6.8
	C5,256.4,7.6,257.4,10.3,257.4L10.3,257.4z M514.3,555h-16.1c-8.1,0-16-1.8-23.3-5.2c-20.7-9.5-44.4-9.5-65.1,0
	c-7.3,3.4-15.3,5.2-23.3,5.2h-16.1c-10.8,0.1-21.2-4-29.1-11.2c-7.6-7-12-16.8-12-27.2v-14.8c11.5,9.6,26.1,14.8,41.1,14.8h16.1
	c11.2,0,22.3-2.4,32.5-7.2c14.8-6.8,31.9-6.8,46.7,0c10.2,4.7,21.3,7.2,32.5,7.2h16.1c15,0.1,29.6-5.2,41.2-14.8v14.8
	c-0.1,10.3-4.4,20.2-12,27.2C535.5,551,525.1,555.1,514.3,555L514.3,555z M474.8,425.7c7.3-3.4,15.3-5.1,23.3-5.1h16.1
	c14.7,0,28.3,7.3,35.6,19.2c7.3,11.7,7.3,26.7,0,38.4c-7.3,11.9-20.9,19.2-35.6,19.2h-16.1c-8.1,0-16-1.8-23.3-5.1
	c-20.7-9.5-44.4-9.5-65.1,0c-7.3,3.4-15.3,5.1-23.3,5.1h-16.1c-14.7,0-28.3-7.3-35.6-19.2c-7.4-11.7-7.4-26.7,0-38.4
	c7.4-11.9,20.9-19.2,35.6-19.2h16.1c8.1,0,16,1.8,23.3,5.1C430.4,435.2,454.2,435.2,474.8,425.7z M379.8,401.4h-9.5
	c-16.1-0.1-31.7,6-43.6,16.9c-11.4,10.5-18,25.2-18.1,40.7v57.6c0,6.6,1.2,13.1,3.6,19.2H91.3L52.8,257.4h50v172.8
	c0.1,10.3,4.4,20.2,12,27.2c7.9,7.3,18.4,11.3,29.2,11.2h102.9c10.8,0.1,21.2-3.9,29.1-11.2c7.6-7,11.9-16.8,12-27.2v-80.5
	l26.9,12.5l0,0c7.9,3.6,16.9,4.1,25.1,1.5c8.1-2.5,14.9-8.1,18.9-15.6c4-7.3,4.7-15.9,1.9-23.8c-2.9-8-8.9-14.5-16.7-18L288,280.3
	v-22.9h111.7L379.8,401.4z M246.9,219h20.6v67.2c0,3.7,2.3,7.1,5.7,8.6l61.7,28.8c2.9,1.3,5.2,3.8,6.3,6.8c1.1,3.2,0.7,6.7-1,9.6
	c-1.5,2.7-4,4.7-7,5.6c-3,0.9-6.3,0.7-9.2-0.6l-41.8-19.5l0,0c-3.2-1.5-6.9-1.3-10,0.5c-3,1.6-4.8,4.7-4.9,8.1v96
	c0,5.2-2.2,10.1-6,13.6c-4,3.6-9.2,5.6-14.5,5.6V363h-20.6v86.4h-20.6V363h-20.6v86.4h-20.6V363H144v86.4c-5.4,0-10.6-2-14.6-5.6
	c-3.8-3.5-6-8.4-6-13.6V219H246.9z M432,238.2H288V219h144V238.2z M421.7,36.6h-20.6V17.4h20.6L421.7,36.6z M329.1,17.4h51.4v24.2
	L335.8,75h-78c2.6-16.2,11.2-30.9,24.1-41.2C295.4,23.1,312,17.3,329.1,17.4z M329.1,94.2v19.2H288V94.2L329.1,94.2z M257.1,155.8
	l24.9-23.2h53.2l45.4,42.4v24.8H257.1V155.8z M107.8,84.6h51.8l24.7,28.8H83.1L107.8,84.6z M113.1,17.4h41.2v48h-41.2V17.4z
	 M72,132.6h123.4v67.2H72V132.6z M20.6,219h82.3v19.2H20.6V219z"/>
<path class="st0" d="M504,439.8h20.6V459H504V439.8z"/>
<path class="st0" d="M401.1,439.8h20.6V459h-20.6V439.8z"/>
<path class="st0" d="M360,449.4h20.6v19.2H360V449.4z"/>
<path class="st0" d="M462.9,449.4h20.6v19.2h-20.6V449.4z"/>
</svg>
