<?xml version="1.0" encoding="utf-8"?>
<!-- Generator: Adobe Illustrator 25.4.1, SVG Export Plug-In . SVG Version: 6.00 Build 0)  -->
<svg version="1.1" id="Layer_1" xmlns="http://www.w3.org/2000/svg" xmlns:xlink="http://www.w3.org/1999/xlink" x="0px" y="0px"
	 viewBox="0 0 576 576" style="enable-background:new 0 0 576 576;" xml:space="preserve">
<style type="text/css">
	.st0{fill:#FFFFFF;}
</style>
<path class="st0" d="M21.1,183.4c-0.1,6,4.1,11.2,9.9,12.6c77.9,17.4,139.3,80.5,156.2,160.7c1.3,6.8,7.8,11.2,14.6,9.9
	c5-1,9-4.9,9.9-9.9c17-80.2,78.3-143.2,156.2-160.7c7-1.7,11.2-8.8,9.5-15.7c-1.2-4.7-4.8-8.3-9.5-9.5
	c-21.8-4.9-42.6-13.4-61.6-25.2c-5.8-3.6-13.4-1.8-17,4c-0.1,0.1-0.2,0.2-0.2,0.4c-3.6,6.1-1.7,13.9,4.3,17.7
	c9.6,6,19.7,11.2,30.1,15.7c-56,24-100.8,70-124.1,127.6c-23.3-57.6-68.1-103.6-124.1-127.6c56-23.9,100.8-70,124.1-127.6
	c10.5,26,25.6,50,44.5,70.8c4.5,5.1,12.3,5.5,17.4,1c0.1-0.1,0.3-0.2,0.4-0.4c5.1-4.9,5.3-13,0.6-18.3c-25.3-27.9-42.8-62-50.6-98.8
	c-1.3-6.8-7.8-11.2-14.6-9.9c-5,1-9,4.9-9.9,9.9c-17,80.2-78.3,143.2-156.2,160.7C25.2,172.2,21,177.4,21.1,183.4z"/>
<path class="st0" d="M554.9,361.5c0.1-6-4.1-11.2-9.9-12.6c-49.7-11.1-88.9-51.4-99.7-102.5c-1.3-6.8-7.8-11.2-14.6-9.9
	c-5,1-9,4.9-9.9,9.9c-10.8,51.1-50,91.4-99.7,102.5c-7,1.7-11.2,8.8-9.5,15.7c1.2,4.7,4.8,8.3,9.5,9.5c19.5,4.4,37.7,13.3,53.1,25.9
	c5.3,4.3,13,3.5,17.3-1.7c0.1-0.1,0.2-0.3,0.3-0.4c4.3-5.6,3.4-13.6-2-18.1c-8.7-7.1-18.2-13.2-28.2-18.3
	c31.3-15.9,56.4-41.7,71.4-73.4c15,31.7,40.1,57.5,71.4,73.4c-31.3,15.9-56.4,41.7-71.4,73.4c-2.6-5.4-5.5-10.7-8.7-15.8
	c-3.5-5.8-11.1-7.7-17-4.2c-0.2,0.1-0.3,0.2-0.5,0.3c-5.9,4-7.5,11.8-3.8,17.9c8.4,13.4,14.3,28.2,17.5,43.6
	c1.3,6.8,7.8,11.2,14.6,9.9c5-1,9-4.9,9.9-9.9c10.8-51.1,50-91.4,99.7-102.5C550.8,372.8,554.9,367.5,554.9,361.5L554.9,361.5z"/>
<path class="st0" d="M247.4,410.4c-1.3-6.8-7.8-11.2-14.6-10c-5.1,1-9,4.9-10,10c-6.9,32.5-31.7,58-63.3,65.1
	c-7,1.7-11.2,8.8-9.5,15.7c1.2,4.7,4.8,8.3,9.5,9.5c31.6,7.1,56.4,32.6,63.3,65.1c1.3,6.8,7.9,11.2,14.6,9.9c5-1,8.9-4.9,9.9-9.9
	c6.9-32.5,31.7-58,63.3-65.1c7-1.7,11.2-8.8,9.5-15.7c-1.2-4.7-4.8-8.3-9.5-9.5C279.1,468.4,254.3,442.8,247.4,410.4L247.4,410.4z
	 M235.1,528c-9.3-16.4-22.7-30.1-38.8-39.9c16.1-9.8,29.5-23.5,38.8-39.9c9.3,16.4,22.7,30.1,38.8,39.9
	C257.8,497.9,244.4,511.6,235.1,528z"/>
<path class="st0" d="M107.4,385.3c-0.5-0.7-1-1.4-1.6-2c-5-4.8-12.8-4.8-17.8,0c-0.6,0.6-1.1,1.3-1.6,2c-0.5,0.7-0.8,1.4-1.1,2.2
	c-0.3,0.8-0.6,1.6-0.8,2.5c-0.2,0.8-0.2,1.7-0.2,2.5c0,1.7,0.3,3.3,0.9,4.9c0.7,1.6,1.6,3,2.8,4.2c4.6,4.9,12.4,5.1,17.3,0.5
	c0.2-0.2,0.3-0.3,0.5-0.5c2.3-2.5,3.6-5.7,3.6-9.1c0-0.8-0.1-1.7-0.2-2.5c-0.1-0.8-0.4-1.7-0.7-2.5
	C108.2,386.7,107.8,386,107.4,385.3L107.4,385.3z"/>
<path class="st0" d="M415.7,118.3c-0.4-0.7-1-1.4-1.6-1.9c-0.6-0.6-1.2-1.1-1.9-1.6c-0.7-0.5-1.4-0.9-2.2-1.2
	c-0.8-0.3-1.5-0.5-2.3-0.7c-1.6-0.3-3.3-0.3-4.9,0c-0.8,0.2-1.6,0.4-2.4,0.7c-0.7,0.3-1.5,0.8-2.1,1.2c-0.7,0.5-1.3,1-2,1.6
	c-1.2,1.2-2.1,2.6-2.7,4.2c-0.3,0.8-0.6,1.6-0.7,2.4c-0.2,0.8-0.3,1.7-0.2,2.5c0,1.7,0.3,3.4,0.9,5c0.6,1.6,1.5,3,2.7,4.2
	c4.8,4.9,12.7,5,17.6,0.2c0.1-0.1,0.1-0.1,0.2-0.2c2.4-2.5,3.7-5.8,3.7-9.2c0-0.8-0.1-1.7-0.2-2.5
	C417.2,121.3,416.5,119.7,415.7,118.3L415.7,118.3z"/>
<path class="st0" d="M340.9,481c0.5,0.7,1,1.4,1.6,2c1.2,1.2,2.6,2.1,4.1,2.8c1.5,0.7,3.1,1,4.8,1c1.7,0,3.3-0.3,4.8-1
	c1.5-0.7,2.9-1.6,4.1-2.8c0.6-0.6,1.1-1.3,1.6-2c0.4-0.7,0.8-1.4,1.1-2.2c0.3-0.8,0.5-1.6,0.7-2.4c0.2-0.8,0.3-1.7,0.2-2.6
	c0-0.9-0.1-1.7-0.2-2.5c-0.1-0.8-0.4-1.6-0.7-2.4c-0.3-0.8-0.7-1.5-1.1-2.3c-0.5-0.7-1-1.3-1.6-1.9c-4.9-4.8-12.8-4.8-17.8,0
	c-0.6,0.6-1.1,1.2-1.6,1.9c-0.4,0.7-0.8,1.5-1.1,2.3c-0.3,0.8-0.6,1.6-0.8,2.4c-0.3,1.7-0.3,3.4,0,5.1c0.2,0.8,0.4,1.6,0.7,2.4
	C340,479.6,340.4,480.4,340.9,481L340.9,481z"/>
<path class="st0" d="M286.4,295.2c0.5,0.7,1,1.4,1.6,2c0.6,0.6,1.2,1.1,2,1.6c0.7,0.5,1.4,0.9,2.1,1.2c0.7,0.3,1.5,0.6,2.3,0.7
	c0.8,0.2,1.7,0.3,2.5,0.3c3.3,0,6.5-1.4,8.9-3.8c0.6-0.6,1.1-1.3,1.6-2c0.5-0.7,0.8-1.4,1.1-2.2c0.3-0.8,0.6-1.6,0.8-2.5
	c0.1-0.8,0.2-1.7,0.2-2.5c0-0.8-0.1-1.7-0.2-2.5c-0.2-0.8-0.4-1.7-0.8-2.5c-0.3-0.8-0.7-1.5-1.1-2.2c-0.4-0.7-1-1.4-1.6-1.9
	c-0.6-0.6-1.2-1.2-1.9-1.6c-0.7-0.5-1.4-0.9-2.2-1.2c-0.7-0.3-1.5-0.6-2.3-0.7c-4.1-0.8-8.4,0.6-11.3,3.6c-0.6,0.6-1.1,1.2-1.6,1.9
	c-0.4,0.7-0.8,1.4-1.1,2.2c-0.3,0.8-0.6,1.6-0.7,2.5c-0.2,0.8-0.2,1.7-0.2,2.5c0,0.8,0.1,1.7,0.2,2.5c0.1,0.8,0.4,1.7,0.7,2.5
	C285.6,293.7,286,294.5,286.4,295.2L286.4,295.2z"/>
</svg>
